<?xml version="1.0" standalone="no"?><svg xmlns:xlink="http://www.w3.org/1999/xlink" xmlns="http://www.w3.org/2000/svg" viewBox="0 0 2000 1200.0005607479256" preserveAspectRatio="xMaxYMax slice"><g transform="scale(2.8037396279157143)"><rect x="0" y="0" width="713.3333333333333" height="428" fill="#ebf2ff"/><path d="M 0 0 A 71.33 71.33 0 0 1 71.33 71.33 L 0 71.33" fill="#f4b79c"/><polygon points="71.33,0 142.66,71.33 71.33,71.33" fill="#f1cbbd"/><rect x="142.66666666666666" y="0" width="71.33333333333333" height="71.33333333333333" fill="#ebf2ff"/><g transform="translate(142.67,0) scale(1.7835) rotate(0)"><path d="M10 0H20V10L10 20H0V10L10 0Z" fill="#fb8549"/></g><polygon points="178.33,0 214,0 178.33,35.67" fill="#ececf5"/><path d="M 142.67 35.67 A 35.67 35.67 0 0 1  178.33999999999997 71.34 L 142.67 35.67 A 35.67 35.67 0 0 0 178.33999999999997 71.34" fill="#f5ad8c"/><g transform="translate(178.33,35.67) scale(1.7835) rotate(0)"><path d="M10 0H20V10L10 20H0V10L10 0Z" fill="#fe6f24"/></g><rect x="214" y="0" width="71.33333333333333" height="71.33333333333333" fill="#ebf2ff"/><polygon points="214,0 249.67000000000002,0 249.67000000000002,35.67" fill="#f89a6c"/><polygon points="249.67,0 285.34,35.67 249.67,35.67" fill="#fb8549"/><g transform="translate(214,35.67) scale(1.7835) rotate(0)"><path d="M10 0H20V10L10 20H0V10L10 0Z" fill="#ede6eb"/></g><polygon points="249.67,35.67 285.34,35.67 285.34,71.34" fill="#ff691b"/><polygon points="285.33,0 356.65999999999997,0 285.33,71.33" fill="#f3bba3"/><rect x="356.66666666666663" y="0" width="71.33333333333333" height="71.33333333333333" fill="#ebf2ff"/><polygon points="392.34000000000003,0 392.34000000000003,35.67 356.67,35.67" fill="#eceaf1"/><polygon points="392.33,0 428,0 428,35.67" fill="#fd7631"/><polygon points="356.67,35.67 392.34000000000003,35.67 392.34000000000003,71.34" fill="#f1c6b5"/><polygon points="392.33,35.67 428,35.67 392.33,71.34" fill="#f99463"/><rect x="428" y="0" width="71.33333333333333" height="71.33333333333333" fill="#ebf2ff"/><path d="M 428 35.67 A 35.67 35.67 0 0 1  463.67 0 L 463.67 35.67" fill="#ede2e5"/><path d="M 463.67 0 A 35.67 35.67 0 0 1 499.34000000000003 35.67 L 463.67 35.67" fill="#ecedf7"/><path d="M 428 71.34 A 35.67 35.67 0 0 1  463.67 35.67 L 428 71.34 A 35.67 35.67 0 0 0 463.67 35.67" fill="#f5aa87"/><polygon points="499.34000000000003,35.67 499.34000000000003,71.34 463.67,71.34" fill="#fa874d"/><rect x="499.3333333333333" y="0" width="71.33333333333333" height="71.33333333333333" fill="#ebf2ff"/><polygon points="499.33,0 535,35.67 499.33,35.67" fill="#f1cabc"/><g transform="translate(535,0) scale(1.7835) rotate(0)"><path d="M10 0H20V10L10 20H0V10L10 0Z" fill="#fe7128"/></g><polygon points="499.33,35.67 535,35.67 499.33,71.34" fill="#ececf6"/><g transform="translate(535,35.67) scale(1.7835) rotate(0)"><path d="M10 0H20V10L10 20H0V10L10 0Z" fill="#ede6eb"/></g><rect x="570.6666666666666" y="0" width="71.33333333333333" height="71.33333333333333" fill="#ebf2ff"/><polygon points="570.67,0 606.3399999999999,0 570.67,35.67" fill="#f7a177"/><polygon points="606.33,0 642,35.67 606.33,35.67" fill="#f3bba4"/><polygon points="570.67,35.67 606.3399999999999,35.67 606.3399999999999,71.34" fill="#f2c4b3"/><path d="M 606.33 71.34 A 35.67 35.67 0 0 0 642 35.67 L 606.33 35.67" fill="#f0cfc4"/><rect x="642" y="0" width="71.33333333333333" height="71.33333333333333" fill="#ebf2ff"/><path d="M 642 35.67 A 35.67 35.67 0 0 1  677.67 0 L 677.67 35.67" fill="#fd7732"/><g transform="translate(677.67,0) scale(1.7835) rotate(0)"><path d="M10 0H20V10L10 20H0V10L10 0Z" fill="#eceef8"/></g><g transform="translate(642,35.67) scale(1.7835) rotate(0)"><path d="M10 0H20V10L10 20H0V10L10 0Z" fill="#f89869"/></g><g transform="translate(677.67,35.67) scale(1.7835) rotate(0)"><path d="M10 0H20V10L10 20H0V10L10 0Z" fill="#f99462"/></g><path d="M 0 71.33 A 71.33 71.33 0 0 1 71.33 142.66 L 0 142.66" fill="#f7a279"/><rect x="71.33333333333333" y="71.33333333333333" width="71.33333333333333" height="71.33333333333333" fill="#ebf2ff"/><g transform="translate(71.33,71.33) scale(1.7835) rotate(0)"><path d="M10 0H20V10L10 20H0V10L10 0Z" fill="#f6a884"/></g><path d="M 107 71.33 A 35.67 35.67 0 0 1 142.67000000000002 107 L 107 107" fill="#eee1e2"/><path d="M 71.33 142.67000000000002 A 35.67 35.67 0 0 0 107 107 L 71.33 107" fill="#efd6d0"/><path d="M 107 107 A 35.67 35.67 0 0 0 142.67000000000002 142.67000000000002 L 142.67000000000002 107" fill="#f0cec2"/><rect x="142.66666666666666" y="71.33333333333333" width="71.33333333333333" height="71.33333333333333" fill="#ebf2ff"/><g transform="translate(142.67,71.33) scale(1.7835) rotate(0)"><path d="M10 0H20V10L10 20H0V10L10 0Z" fill="#f2c5b4"/></g><g transform="translate(178.33,71.33) scale(1.7835) rotate(0)"><path d="M10 0H20V10L10 20H0V10L10 0Z" fill="#f0d3cb"/></g><path d="M 142.67 142.67000000000002 A 35.67 35.67 0 0 0 178.33999999999997 107 L 142.67 107" fill="#eceef9"/><polygon points="178.33,107 214,107 178.33,142.67000000000002" fill="#ede6eb"/><path d="M 214 71.33 A 71.33 71.33 0 0 1 285.33 142.66 L 214 142.66" fill="#fa894f"/><path d="M 285.33 71.33 A 71.33 71.33 0 0 0 356.65999999999997 142.66 L 356.65999999999997 71.33" fill="#efd6d1"/><path d="M 356.67 71.33 A 71.33 71.33 0 0 1 428 142.66 L 356.67 142.66" fill="#f1c6b5"/><polygon points="428,71.33 499.33,71.33 428,142.66" fill="#f89767"/><path d="M 499.33 71.33 A 71.33 71.33 0 0 1 570.66 142.66 L 499.33 142.66" fill="#fa8d56"/><rect x="570.6666666666666" y="71.33333333333333" width="71.33333333333333" height="71.33333333333333" fill="#ebf2ff"/><path d="M 570.67 107 A 35.67 35.67 0 0 1  606.3399999999999 71.33 L 570.67 107 A 35.67 35.67 0 0 0 606.3399999999999 71.33" fill="#f7a178"/><polygon points="606.33,71.33 642,71.33 642,107" fill="#f2c2b0"/><polygon points="606.3399999999999,107 606.3399999999999,142.67000000000002 570.67,142.67000000000002" fill="#eedad7"/><path d="M 606.33 107 A 35.67 35.67 0 0 0 642 142.67000000000002 L 642 107" fill="#f3b9a0"/><polygon points="713.33,71.33 713.33,142.66 642,142.66" fill="#fe6d21"/><rect x="0" y="142.66666666666666" width="71.33333333333333" height="71.33333333333333" fill="#ebf2ff"/><g transform="translate(0,142.67) scale(1.7835) rotate(0)"><path d="M10 0H20V10L10 20H0V10L10 0Z" fill="#ede4e8"/></g><polygon points="35.67,142.67 71.34,178.33999999999997 35.67,178.33999999999997" fill="#f4b396"/><g transform="translate(0,178.33) scale(1.7835) rotate(0)"><path d="M10 0H20V10L10 20H0V10L10 0Z" fill="#f5ac8a"/></g><g transform="translate(35.67,178.33) scale(1.7835) rotate(0)"><path d="M10 0H20V10L10 20H0V10L10 0Z" fill="#efd3cc"/></g><path d="M 71.33 142.67 A 71.33 71.33 0 0 1  142.66 214 L 71.33 142.67 A 71.33 71.33 0 0 0 142.66 214" fill="#fd742d"/><path d="M 142.67 142.67 A 71.33 71.33 0 0 1 214 214 L 142.67 214" fill="#f7a077"/><rect x="214" y="142.66666666666666" width="71.33333333333333" height="71.33333333333333" fill="#ebf2ff"/><g transform="translate(214,142.67) scale(1.7835) rotate(0)"><path d="M10 0H20V10L10 20H0V10L10 0Z" fill="#fd7630"/></g><path d="M 249.67 178.33999999999997 A 35.67 35.67 0 0 0 285.34 142.67 L 249.67 142.67" fill="#ececf5"/><polygon points="214,178.33 249.67000000000002,178.33 249.67000000000002,214" fill="#fb8041"/><g transform="translate(249.67,178.33) scale(1.7835) rotate(0)"><path d="M10 0H20V10L10 20H0V10L10 0Z" fill="#fd7733"/></g><rect x="285.3333333333333" y="142.66666666666666" width="71.33333333333333" height="71.33333333333333" fill="#ebf2ff"/><polygon points="285.33,142.67 321,142.67 321,178.33999999999997" fill="#fe6e22"/><polygon points="356.67,142.67 356.67,178.33999999999997 321,178.33999999999997" fill="#ebeffa"/><polygon points="285.33,178.33 321,214 285.33,214" fill="#fe6e23"/><polygon points="356.67,178.33 356.67,214 321,214" fill="#f7a076"/><polygon points="356.67,142.67 428,142.67 428,214" fill="#f9905b"/><path d="M 428 214 A 71.33 71.33 0 0 0 499.33 142.67 L 428 142.67" fill="#f2c0ab"/><path d="M 499.33 214 A 71.33 71.33 0 0 1  570.66 142.67 L 499.33 214 A 71.33 71.33 0 0 0 570.66 142.67" fill="#eedede"/><polygon points="570.67,142.67 642,214 570.67,214" fill="#efd5cf"/><g transform="translate(642,142.67) scale(3.5665) rotate(0)"><path d="M10 0H20V10L10 20H0V10L10 0Z" fill="#f2c4b2"/></g><polygon points="0,214 71.33,214 0,285.33" fill="#f0d1c8"/><polygon points="71.33,214 142.66,285.33 71.33,285.33" fill="#f7a076"/><rect x="142.66666666666666" y="214" width="71.33333333333333" height="71.33333333333333" fill="#ebf2ff"/><g transform="translate(142.67,214) scale(1.7835) rotate(0)"><path d="M10 0H20V10L10 20H0V10L10 0Z" fill="#fb8244"/></g><polygon points="178.33,214 214,214 214,249.67000000000002" fill="#f99463"/><g transform="translate(142.67,249.67) scale(1.7835) rotate(0)"><path d="M10 0H20V10L10 20H0V10L10 0Z" fill="#f4b192"/></g><path d="M 178.33 285.34 A 35.67 35.67 0 0 1  214 249.67 L 214 285.34" fill="#f9915d"/><rect x="214" y="214" width="71.33333333333333" height="71.33333333333333" fill="#ebf2ff"/><g transform="translate(214,214) scale(1.7835) rotate(0)"><path d="M10 0H20V10L10 20H0V10L10 0Z" fill="#f89767"/></g><path d="M 249.67 249.67000000000002 A 35.67 35.67 0 0 0 285.34 214 L 249.67 214" fill="#f9925f"/><path d="M 214 285.34 A 35.67 35.67 0 0 1  249.67000000000002 249.67 L 214 285.34 A 35.67 35.67 0 0 0 249.67000000000002 249.67" fill="#ebf0fb"/><path d="M 249.67 285.34 A 35.67 35.67 0 0 0 285.34 249.67 L 249.67 249.67" fill="#f98e59"/><rect x="285.3333333333333" y="214" width="71.33333333333333" height="71.33333333333333" fill="#ebf2ff"/><path d="M 285.33 214 A 35.67 35.67 0 0 1  321 249.67000000000002 L 285.33 214 A 35.67 35.67 0 0 0 321 249.67000000000002" fill="#f4b79c"/><path d="M 321 214 A 35.67 35.67 0 0 0 356.67 249.67000000000002 L 356.67 214" fill="#f0d3cb"/><path d="M 285.33 249.67 A 35.67 35.67 0 0 1 321 285.34 L 285.33 285.34" fill="#f0d2c9"/><g transform="translate(321,249.67) scale(1.7835) rotate(0)"><path d="M10 0H20V10L10 20H0V10L10 0Z" fill="#f7a076"/></g><path d="M 356.67 214 A 71.33 71.33 0 0 1 428 285.33 L 356.67 285.33" fill="#f3b89f"/><rect x="428" y="214" width="71.33333333333333" height="71.33333333333333" fill="#ebf2ff"/><path d="M 428 214 A 35.67 35.67 0 0 0 463.67 249.67000000000002 L 463.67 214" fill="#fb8042"/><g transform="translate(463.67,214) scale(1.7835) rotate(0)"><path d="M10 0H20V10L10 20H0V10L10 0Z" fill="#ebf1fe"/></g><polygon points="463.67,249.67 463.67,285.34 428,285.34" fill="#f2c3b1"/><polygon points="463.67,249.67 499.34000000000003,249.67 463.67,285.34" fill="#fc8041"/><rect x="499.3333333333333" y="214" width="71.33333333333333" height="71.33333333333333" fill="#ebf2ff"/><path d="M 499.33 214 A 35.67 35.67 0 0 1  535 249.67000000000002 L 499.33 214 A 35.67 35.67 0 0 0 535 249.67000000000002" fill="#fd7731"/><g transform="translate(535,214) scale(1.7835) rotate(0)"><path d="M10 0H20V10L10 20H0V10L10 0Z" fill="#f2c4b3"/></g><polygon points="535,249.67 535,285.34 499.33,285.34" fill="#f0cec3"/><g transform="translate(535,249.67) scale(1.7835) rotate(0)"><path d="M10 0H20V10L10 20H0V10L10 0Z" fill="#fc7f40"/></g><polygon points="570.67,214 642,214 570.67,285.33" fill="#fb8346"/><path d="M 642 214 A 71.33 71.33 0 0 1  713.33 285.33 L 642 214 A 71.33 71.33 0 0 0 713.33 285.33" fill="#f3baa2"/><rect x="0" y="285.3333333333333" width="71.33333333333333" height="71.33333333333333" fill="#ebf2ff"/><path d="M 0 321 A 35.67 35.67 0 0 1  35.67 285.33 L 0 321 A 35.67 35.67 0 0 0 35.67 285.33" fill="#efd4cd"/><polygon points="35.67,285.33 71.34,285.33 35.67,321" fill="#f3baa2"/><g transform="translate(0,321) scale(1.7835) rotate(0)"><path d="M10 0H20V10L10 20H0V10L10 0Z" fill="#fa8b53"/></g><polygon points="35.67,321 71.34,321 35.67,356.67" fill="#fa884f"/><polygon points="71.33,285.33 142.66,356.65999999999997 71.33,356.65999999999997" fill="#fe7026"/><g transform="translate(142.67,285.33) scale(3.5665) rotate(0)"><path d="M10 0H20V10L10 20H0V10L10 0Z" fill="#ede7ed"/></g><rect x="214" y="285.3333333333333" width="71.33333333333333" height="71.33333333333333" fill="#ebf2ff"/><polygon points="214,285.33 249.67000000000002,321 214,321" fill="#f6a37b"/><g transform="translate(249.67,285.33) scale(1.7835) rotate(0)"><path d="M10 0H20V10L10 20H0V10L10 0Z" fill="#f0cec4"/></g><g transform="translate(214,321) scale(1.7835) rotate(0)"><path d="M10 0H20V10L10 20H0V10L10 0Z" fill="#efd5cf"/></g><polygon points="249.67,321 285.34,321 249.67,356.67" fill="#f9925f"/><polygon points="285.33,285.33 356.65999999999997,285.33 356.65999999999997,356.65999999999997" fill="#f4b396"/><rect x="356.66666666666663" y="285.3333333333333" width="71.33333333333333" height="71.33333333333333" fill="#ebf2ff"/><polygon points="356.67,285.33 392.34000000000003,285.33 356.67,321" fill="#ede1e3"/><polygon points="392.33,285.33 428,285.33 428,321" fill="#f6a884"/><polygon points="356.67,321 392.34000000000003,321 392.34000000000003,356.67" fill="#ede7ed"/><polygon points="392.33,321 428,356.67 392.33,356.67" fill="#f4b295"/><rect x="428" y="285.3333333333333" width="71.33333333333333" height="71.33333333333333" fill="#ebf2ff"/><g transform="translate(428,285.33) scale(1.7835) rotate(0)"><path d="M10 0H20V10L10 20H0V10L10 0Z" fill="#f2c5b4"/></g><path d="M 463.67 321 A 35.67 35.67 0 0 1  499.34000000000003 285.33 L 463.67 321 A 35.67 35.67 0 0 0 499.34000000000003 285.33" fill="#f89869"/><polygon points="428,321 463.67,321 428,356.67" fill="#f2bfaa"/><g transform="translate(463.67,321) scale(1.7835) rotate(0)"><path d="M10 0H20V10L10 20H0V10L10 0Z" fill="#f7a178"/></g><rect x="499.3333333333333" y="285.3333333333333" width="71.33333333333333" height="71.33333333333333" fill="#ebf2ff"/><g transform="translate(499.33,285.33) scale(1.7835) rotate(0)"><path d="M10 0H20V10L10 20H0V10L10 0Z" fill="#f1ccbf"/></g><polygon points="570.67,285.33 570.67,321 535,321" fill="#f6a986"/><polygon points="499.33,321 535,321 535,356.67" fill="#fe6e23"/><polygon points="570.67,321 570.67,356.67 535,356.67" fill="#f2bfaa"/><g transform="translate(570.67,285.33) scale(3.5665) rotate(0)"><path d="M10 0H20V10L10 20H0V10L10 0Z" fill="#ede7ed"/></g><rect x="642" y="285.3333333333333" width="71.33333333333333" height="71.33333333333333" fill="#ebf2ff"/><g transform="translate(642,285.33) scale(1.7835) rotate(0)"><path d="M10 0H20V10L10 20H0V10L10 0Z" fill="#f1c8ba"/></g><path d="M 677.67 285.33 A 35.67 35.67 0 0 0 713.3399999999999 321 L 713.3399999999999 285.33" fill="#f0cdc2"/><g transform="translate(642,321) scale(1.7835) rotate(0)"><path d="M10 0H20V10L10 20H0V10L10 0Z" fill="#fe6e23"/></g><g transform="translate(677.67,321) scale(1.7835) rotate(0)"><path d="M10 0H20V10L10 20H0V10L10 0Z" fill="#f0cec3"/></g><rect x="0" y="356.66666666666663" width="71.33333333333333" height="71.33333333333333" fill="#ebf2ff"/><polygon points="35.67,356.67 35.67,392.34000000000003 0,392.34000000000003" fill="#f5aa87"/><path d="M 35.67 392.34000000000003 A 35.67 35.67 0 0 1  71.34 356.67 L 71.34 392.34000000000003" fill="#f3baa1"/><g transform="translate(0,392.33) scale(1.7835) rotate(0)"><path d="M10 0H20V10L10 20H0V10L10 0Z" fill="#f89666"/></g><g transform="translate(35.67,392.33) scale(1.7835) rotate(0)"><path d="M10 0H20V10L10 20H0V10L10 0Z" fill="#f1c7b7"/></g><rect x="71.33333333333333" y="356.66666666666663" width="71.33333333333333" height="71.33333333333333" fill="#ebf2ff"/><path d="M 71.33 356.67 A 35.67 35.67 0 0 0 107 392.34000000000003 L 107 356.67" fill="#eceff9"/><polygon points="107,356.67 142.67000000000002,392.34000000000003 107,392.34000000000003" fill="#eedad8"/><polygon points="71.33,392.33 107,392.33 71.33,428" fill="#f2c4b2"/><path d="M 107 392.33 A 35.67 35.67 0 0 1 142.67000000000002 428 L 107 428" fill="#f89564"/><path d="M 142.67 356.67 A 71.33 71.33 0 0 1 214 428 L 142.67 428" fill="#fc7b38"/><rect x="214" y="356.66666666666663" width="71.33333333333333" height="71.33333333333333" fill="#ebf2ff"/><g transform="translate(214,356.67) scale(1.7835) rotate(0)"><path d="M10 0H20V10L10 20H0V10L10 0Z" fill="#eedfe0"/></g><polygon points="249.67,356.67 285.34,392.34000000000003 249.67,392.34000000000003" fill="#f89666"/><g transform="translate(214,392.33) scale(1.7835) rotate(0)"><path d="M10 0H20V10L10 20H0V10L10 0Z" fill="#f4b294"/></g><polygon points="249.67,392.33 285.34,392.33 249.67,428" fill="#f3bda6"/><rect x="285.3333333333333" y="356.66666666666663" width="71.33333333333333" height="71.33333333333333" fill="#ebf2ff"/><g transform="translate(285.33,356.67) scale(1.7835) rotate(0)"><path d="M10 0H20V10L10 20H0V10L10 0Z" fill="#ebf0fb"/></g><path d="M 321 356.67 A 35.67 35.67 0 0 1 356.67 392.34000000000003 L 321 392.34000000000003" fill="#f6a680"/><polygon points="321,392.33 321,428 285.33,428" fill="#f2c4b2"/><g transform="translate(321,392.33) scale(1.7835) rotate(0)"><path d="M10 0H20V10L10 20H0V10L10 0Z" fill="#fc7d3c"/></g><rect x="356.66666666666663" y="356.66666666666663" width="71.33333333333333" height="71.33333333333333" fill="#ebf2ff"/><g transform="translate(356.67,356.67) scale(1.7835) rotate(0)"><path d="M10 0H20V10L10 20H0V10L10 0Z" fill="#f2bfab"/></g><path d="M 392.33 356.67 A 35.67 35.67 0 0 1 428 392.34000000000003 L 392.33 392.34000000000003" fill="#efd5ce"/><polygon points="356.67,392.33 392.34000000000003,392.33 392.34000000000003,428" fill="#fb8549"/><polygon points="428,392.33 428,428 392.33,428" fill="#f6aa86"/><polygon points="499.33,356.67 499.33,428 428,428" fill="#fe7027"/><polygon points="570.66,356.67 570.66,428 499.33,428" fill="#fe6d22"/><polygon points="642,356.67 642,428 570.67,428" fill="#f5ad8b"/><path d="M 642 356.67 A 71.33 71.33 0 0 0 713.33 428 L 713.33 356.67" fill="#f98f5a"/></g></svg>