<?xml version="1.0" standalone="no"?><svg xmlns:xlink="http://www.w3.org/1999/xlink" xmlns="http://www.w3.org/2000/svg" viewBox="0 0 1000 600.0002803739628" preserveAspectRatio="xMaxYMax slice"><g transform="scale(1.4018698139578571)"><rect x="0" y="0" width="713.3333333333333" height="428" fill="#ebf2ff"/><circle cx="35.665" cy="35.665" r="35.665" fill="#ffe7da"/><circle cx="106.995" cy="35.665" r="35.665" fill="#94a2ca"/><circle cx="178.33499999999998" cy="35.665" r="35.665" fill="#cad1e5"/><rect x="214" y="0" width="71.33333333333333" height="71.33333333333333" fill="#ebf2ff"/><circle cx="231.835" cy="17.835" r="17.835" fill="#ffa272"/><circle cx="267.505" cy="17.835" r="17.835" fill="#f2f4f9"/><circle cx="231.835" cy="53.505" r="17.835" fill="#7a8bbd"/><circle cx="267.505" cy="53.505" r="17.835" fill="#dfe3ef"/><circle cx="320.995" cy="35.665" r="35.665" fill="#ff7025"/><rect x="356.66666666666663" y="0" width="71.33333333333333" height="71.33333333333333" fill="#ebf2ff"/><circle cx="374.505" cy="17.835" r="17.835" fill="#bec6de"/><circle cx="410.16499999999996" cy="17.835" r="17.835" fill="#ffe5d7"/><circle cx="374.505" cy="53.505" r="17.835" fill="#d5daea"/><circle cx="410.16499999999996" cy="53.505" r="17.835" fill="#2e4996"/><rect x="428" y="0" width="71.33333333333333" height="71.33333333333333" fill="#ebf2ff"/><circle cx="445.835" cy="17.835" r="17.835" fill="#d0d6e8"/><circle cx="481.505" cy="17.835" r="17.835" fill="#a6b1d2"/><circle cx="445.835" cy="53.505" r="17.835" fill="#ffece3"/><circle cx="481.505" cy="53.505" r="17.835" fill="#ffb086"/><circle cx="534.995" cy="35.665" r="35.665" fill="#ffc3a4"/><circle cx="606.3349999999999" cy="35.665" r="35.665" fill="#8e9cc7"/><circle cx="677.665" cy="35.665" r="35.665" fill="#455da2"/><rect x="0" y="71.33333333333333" width="71.33333333333333" height="71.33333333333333" fill="#ebf2ff"/><circle cx="17.835" cy="89.16499999999999" r="17.835" fill="#ff8e54"/><circle cx="53.505" cy="89.16499999999999" r="17.835" fill="#ffccb1"/><circle cx="17.835" cy="124.83500000000001" r="17.835" fill="#b3bdd9"/><circle cx="53.505" cy="124.83500000000001" r="17.835" fill="#ff7b36"/><rect x="71.33333333333333" y="71.33333333333333" width="71.33333333333333" height="71.33333333333333" fill="#ebf2ff"/><circle cx="89.16499999999999" cy="89.16499999999999" r="17.835" fill="#354e9a"/><circle cx="124.83500000000001" cy="89.16499999999999" r="17.835" fill="#40589f"/><circle cx="89.16499999999999" cy="124.83500000000001" r="17.835" fill="#a3afd1"/><circle cx="124.83500000000001" cy="124.83500000000001" r="17.835" fill="#fffcfb"/><rect x="142.66666666666666" y="71.33333333333333" width="71.33333333333333" height="71.33333333333333" fill="#ebf2ff"/><circle cx="160.505" cy="89.16499999999999" r="17.835" fill="#445ba1"/><circle cx="196.16500000000002" cy="89.16499999999999" r="17.835" fill="#afb9d7"/><circle cx="160.505" cy="124.83500000000001" r="17.835" fill="#ffd9c6"/><circle cx="196.16500000000002" cy="124.83500000000001" r="17.835" fill="#ffb58e"/><rect x="214" y="71.33333333333333" width="71.33333333333333" height="71.33333333333333" fill="#ebf2ff"/><circle cx="231.835" cy="89.16499999999999" r="17.835" fill="#ffd0b7"/><circle cx="267.505" cy="89.16499999999999" r="17.835" fill="#ffba96"/><circle cx="231.835" cy="124.83500000000001" r="17.835" fill="#93a1c9"/><circle cx="267.505" cy="124.83500000000001" r="17.835" fill="#c3cae1"/><rect x="285.3333333333333" y="71.33333333333333" width="71.33333333333333" height="71.33333333333333" fill="#ebf2ff"/><circle cx="303.16499999999996" cy="89.16499999999999" r="17.835" fill="#fffaf8"/><circle cx="338.835" cy="89.16499999999999" r="17.835" fill="#ffe3d5"/><circle cx="303.16499999999996" cy="124.83500000000001" r="17.835" fill="#2c4796"/><circle cx="338.835" cy="124.83500000000001" r="17.835" fill="#c3cae1"/><circle cx="392.33500000000004" cy="106.995" r="35.665" fill="#ffd4bd"/><rect x="428" y="71.33333333333333" width="71.33333333333333" height="71.33333333333333" fill="#ebf2ff"/><circle cx="445.835" cy="89.16499999999999" r="17.835" fill="#bac3dc"/><circle cx="481.505" cy="89.16499999999999" r="17.835" fill="#7485b9"/><circle cx="445.835" cy="124.83500000000001" r="17.835" fill="#5f74af"/><circle cx="481.505" cy="124.83500000000001" r="17.835" fill="#ffd5bf"/><rect x="499.3333333333333" y="71.33333333333333" width="71.33333333333333" height="71.33333333333333" fill="#ebf2ff"/><circle cx="517.165" cy="89.16499999999999" r="17.835" fill="#ff7a34"/><circle cx="552.835" cy="89.16499999999999" r="17.835" fill="#ffece2"/><circle cx="517.165" cy="124.83500000000001" r="17.835" fill="#38519b"/><circle cx="552.835" cy="124.83500000000001" r="17.835" fill="#adb8d6"/><rect x="570.6666666666666" y="71.33333333333333" width="71.33333333333333" height="71.33333333333333" fill="#ebf2ff"/><circle cx="588.505" cy="89.16499999999999" r="17.835" fill="#2f4997"/><circle cx="624.1650000000001" cy="89.16499999999999" r="17.835" fill="#324c98"/><circle cx="588.505" cy="124.83500000000001" r="17.835" fill="#ffa87a"/><circle cx="624.1650000000001" cy="124.83500000000001" r="17.835" fill="#39529c"/><rect x="642" y="71.33333333333333" width="71.33333333333333" height="71.33333333333333" fill="#ebf2ff"/><circle cx="659.835" cy="89.16499999999999" r="17.835" fill="#ff884a"/><circle cx="695.505" cy="89.16499999999999" r="17.835" fill="#8e9dc7"/><circle cx="659.835" cy="124.83500000000001" r="17.835" fill="#ffe9dd"/><circle cx="695.505" cy="124.83500000000001" r="17.835" fill="#334d99"/><circle cx="35.665" cy="178.33499999999998" r="35.665" fill="#2e4997"/><circle cx="106.995" cy="178.33499999999998" r="35.665" fill="#ff7c38"/><circle cx="178.33499999999998" cy="178.33499999999998" r="35.665" fill="#ff8647"/><rect x="214" y="142.66666666666666" width="71.33333333333333" height="71.33333333333333" fill="#ebf2ff"/><circle cx="231.835" cy="160.505" r="17.835" fill="#798abc"/><circle cx="267.505" cy="160.505" r="17.835" fill="#ff752d"/><circle cx="231.835" cy="196.16500000000002" r="17.835" fill="#ffeee5"/><circle cx="267.505" cy="196.16500000000002" r="17.835" fill="#ffb28a"/><rect x="285.3333333333333" y="142.66666666666666" width="71.33333333333333" height="71.33333333333333" fill="#ebf2ff"/><circle cx="303.16499999999996" cy="160.505" r="17.835" fill="#445ca2"/><circle cx="338.835" cy="160.505" r="17.835" fill="#ffc6a8"/><circle cx="303.16499999999996" cy="196.16500000000002" r="17.835" fill="#c5cce2"/><circle cx="338.835" cy="196.16500000000002" r="17.835" fill="#dce0ed"/><circle cx="392.33500000000004" cy="178.33499999999998" r="35.665" fill="#ffb995"/><rect x="428" y="142.66666666666666" width="71.33333333333333" height="71.33333333333333" fill="#ebf2ff"/><circle cx="445.835" cy="160.505" r="17.835" fill="#6377b1"/><circle cx="481.505" cy="160.505" r="17.835" fill="#284393"/><circle cx="445.835" cy="196.16500000000002" r="17.835" fill="#ffd3bc"/><circle cx="481.505" cy="196.16500000000002" r="17.835" fill="#ff752d"/><rect x="499.3333333333333" y="142.66666666666666" width="71.33333333333333" height="71.33333333333333" fill="#ebf2ff"/><circle cx="517.165" cy="160.505" r="17.835" fill="#ffaf85"/><circle cx="552.835" cy="160.505" r="17.835" fill="#7c8dbd"/><circle cx="517.165" cy="196.16500000000002" r="17.835" fill="#ffe1d1"/><circle cx="552.835" cy="196.16500000000002" r="17.835" fill="#4d64a6"/><rect x="570.6666666666666" y="142.66666666666666" width="71.33333333333333" height="71.33333333333333" fill="#ebf2ff"/><circle cx="588.505" cy="160.505" r="17.835" fill="#ffe3d5"/><circle cx="624.1650000000001" cy="160.505" r="17.835" fill="#fffdfd"/><circle cx="588.505" cy="196.16500000000002" r="17.835" fill="#fffdfb"/><circle cx="624.1650000000001" cy="196.16500000000002" r="17.835" fill="#ffa272"/><rect x="642" y="142.66666666666666" width="71.33333333333333" height="71.33333333333333" fill="#ebf2ff"/><circle cx="659.835" cy="160.505" r="17.835" fill="#ffb087"/><circle cx="695.505" cy="160.505" r="17.835" fill="#8998c4"/><circle cx="659.835" cy="196.16500000000002" r="17.835" fill="#ff6c20"/><circle cx="695.505" cy="196.16500000000002" r="17.835" fill="#ffdcc9"/><circle cx="35.665" cy="249.665" r="35.665" fill="#ffa97b"/><circle cx="106.995" cy="249.665" r="35.665" fill="#ffd8c4"/><circle cx="178.33499999999998" cy="249.665" r="35.665" fill="#bdc6de"/><rect x="214" y="214" width="71.33333333333333" height="71.33333333333333" fill="#ebf2ff"/><circle cx="231.835" cy="231.835" r="17.835" fill="#a9b4d4"/><circle cx="267.505" cy="231.835" r="17.835" fill="#ffccb1"/><circle cx="231.835" cy="267.505" r="17.835" fill="#ffa97c"/><circle cx="267.505" cy="267.505" r="17.835" fill="#ff894b"/><rect x="285.3333333333333" y="214" width="71.33333333333333" height="71.33333333333333" fill="#ebf2ff"/><circle cx="303.16499999999996" cy="231.835" r="17.835" fill="#ff7b36"/><circle cx="338.835" cy="231.835" r="17.835" fill="#ff7a35"/><circle cx="303.16499999999996" cy="267.505" r="17.835" fill="#ff691b"/><circle cx="338.835" cy="267.505" r="17.835" fill="#919fc8"/><circle cx="392.33500000000004" cy="249.665" r="35.665" fill="#5b70ad"/><rect x="428" y="214" width="71.33333333333333" height="71.33333333333333" fill="#ebf2ff"/><circle cx="445.835" cy="231.835" r="17.835" fill="#3e579f"/><circle cx="481.505" cy="231.835" r="17.835" fill="#ff894c"/><circle cx="445.835" cy="267.505" r="17.835" fill="#fffbf9"/><circle cx="481.505" cy="267.505" r="17.835" fill="#ff7831"/><rect x="499.3333333333333" y="214" width="71.33333333333333" height="71.33333333333333" fill="#ebf2ff"/><circle cx="517.165" cy="231.835" r="17.835" fill="#ffe6d9"/><circle cx="552.835" cy="231.835" r="17.835" fill="#ff955d"/><circle cx="517.165" cy="267.505" r="17.835" fill="#ffa474"/><circle cx="552.835" cy="267.505" r="17.835" fill="#475ea3"/><rect x="570.6666666666666" y="214" width="71.33333333333333" height="71.33333333333333" fill="#ebf2ff"/><circle cx="588.505" cy="231.835" r="17.835" fill="#d5daea"/><circle cx="624.1650000000001" cy="231.835" r="17.835" fill="#f4f6fa"/><circle cx="588.505" cy="267.505" r="17.835" fill="#586dab"/><circle cx="624.1650000000001" cy="267.505" r="17.835" fill="#ff691b"/><circle cx="677.665" cy="249.665" r="35.665" fill="#fffaf8"/><rect x="0" y="285.3333333333333" width="71.33333333333333" height="71.33333333333333" fill="#ebf2ff"/><circle cx="17.835" cy="303.16499999999996" r="17.835" fill="#ffeade"/><circle cx="53.505" cy="303.16499999999996" r="17.835" fill="#ff9057"/><circle cx="17.835" cy="338.835" r="17.835" fill="#dbe0ed"/><circle cx="53.505" cy="338.835" r="17.835" fill="#ff894b"/><rect x="71.33333333333333" y="285.3333333333333" width="71.33333333333333" height="71.33333333333333" fill="#ebf2ff"/><circle cx="89.16499999999999" cy="303.16499999999996" r="17.835" fill="#ffe4d7"/><circle cx="124.83500000000001" cy="303.16499999999996" r="17.835" fill="#475fa3"/><circle cx="89.16499999999999" cy="338.835" r="17.835" fill="#ffa577"/><circle cx="124.83500000000001" cy="338.835" r="17.835" fill="#a3aed1"/><circle cx="178.33499999999998" cy="320.995" r="35.665" fill="#a3afd1"/><circle cx="249.665" cy="320.995" r="35.665" fill="#4960a4"/><circle cx="320.995" cy="320.995" r="35.665" fill="#3c549d"/><rect x="356.66666666666663" y="285.3333333333333" width="71.33333333333333" height="71.33333333333333" fill="#ebf2ff"/><circle cx="374.505" cy="303.16499999999996" r="17.835" fill="#afb9d7"/><circle cx="410.16499999999996" cy="303.16499999999996" r="17.835" fill="#ffb995"/><circle cx="374.505" cy="338.835" r="17.835" fill="#c6cde2"/><circle cx="410.16499999999996" cy="338.835" r="17.835" fill="#97a5cb"/><rect x="428" y="285.3333333333333" width="71.33333333333333" height="71.33333333333333" fill="#ebf2ff"/><circle cx="445.835" cy="303.16499999999996" r="17.835" fill="#344e9a"/><circle cx="481.505" cy="303.16499999999996" r="17.835" fill="#425aa1"/><circle cx="445.835" cy="338.835" r="17.835" fill="#edeff6"/><circle cx="481.505" cy="338.835" r="17.835" fill="#ff8b4e"/><rect x="499.3333333333333" y="285.3333333333333" width="71.33333333333333" height="71.33333333333333" fill="#ebf2ff"/><circle cx="517.165" cy="303.16499999999996" r="17.835" fill="#284393"/><circle cx="552.835" cy="303.16499999999996" r="17.835" fill="#7385b9"/><circle cx="517.165" cy="338.835" r="17.835" fill="#e5e8f2"/><circle cx="552.835" cy="338.835" r="17.835" fill="#435ba1"/><circle cx="606.3349999999999" cy="320.995" r="35.665" fill="#ffd4bd"/><circle cx="677.665" cy="320.995" r="35.665" fill="#5f74af"/><rect x="0" y="356.66666666666663" width="71.33333333333333" height="71.33333333333333" fill="#ebf2ff"/><circle cx="17.835" cy="374.505" r="17.835" fill="#eceff6"/><circle cx="53.505" cy="374.505" r="17.835" fill="#ffab80"/><circle cx="17.835" cy="410.16499999999996" r="17.835" fill="#b4beda"/><circle cx="53.505" cy="410.16499999999996" r="17.835" fill="#ffefe7"/><rect x="71.33333333333333" y="356.66666666666663" width="71.33333333333333" height="71.33333333333333" fill="#ebf2ff"/><circle cx="89.16499999999999" cy="374.505" r="17.835" fill="#4159a0"/><circle cx="124.83500000000001" cy="374.505" r="17.835" fill="#ffd9c5"/><circle cx="89.16499999999999" cy="410.16499999999996" r="17.835" fill="#f6f7fb"/><circle cx="124.83500000000001" cy="410.16499999999996" r="17.835" fill="#8393c1"/><circle cx="178.33499999999998" cy="392.33500000000004" r="35.665" fill="#eef0f6"/><circle cx="249.665" cy="392.33500000000004" r="35.665" fill="#2f4997"/><rect x="285.3333333333333" y="356.66666666666663" width="71.33333333333333" height="71.33333333333333" fill="#ebf2ff"/><circle cx="303.16499999999996" cy="374.505" r="17.835" fill="#ffa06f"/><circle cx="338.835" cy="374.505" r="17.835" fill="#f2f4f9"/><circle cx="303.16499999999996" cy="410.16499999999996" r="17.835" fill="#687bb3"/><circle cx="338.835" cy="410.16499999999996" r="17.835" fill="#ffbf9d"/><circle cx="392.33500000000004" cy="392.33500000000004" r="35.665" fill="#3c559d"/><rect x="428" y="356.66666666666663" width="71.33333333333333" height="71.33333333333333" fill="#ebf2ff"/><circle cx="445.835" cy="374.505" r="17.835" fill="#2f4997"/><circle cx="481.505" cy="374.505" r="17.835" fill="#ffc7a9"/><circle cx="445.835" cy="410.16499999999996" r="17.835" fill="#ffe8dc"/><circle cx="481.505" cy="410.16499999999996" r="17.835" fill="#8494c2"/><circle cx="534.995" cy="392.33500000000004" r="35.665" fill="#e1e5f0"/><circle cx="606.3349999999999" cy="392.33500000000004" r="35.665" fill="#ff7f3c"/><rect x="642" y="356.66666666666663" width="71.33333333333333" height="71.33333333333333" fill="#ebf2ff"/><circle cx="659.835" cy="374.505" r="17.835" fill="#ffba95"/><circle cx="695.505" cy="374.505" r="17.835" fill="#546aaa"/><circle cx="659.835" cy="410.16499999999996" r="17.835" fill="#4960a4"/><circle cx="695.505" cy="410.16499999999996" r="17.835" fill="#bcc4dd"/></g></svg>